# Blender 4.1.1
# www.blender.org
mtllib edge rocks.mtl
o Cube
v 1.587276 0.638824 -1.052920
v 1.587276 -1.000000 -1.211621
v 1.587276 0.657749 1.000000
v 1.587276 -1.000000 1.000000
v -1.502312 1.304209 -0.690137
v -1.502312 -1.021030 -0.690137
v -1.559085 1.325239 1.000000
v -0.848643 -1.000000 1.000000
v 5.419863 0.300989 -0.582507
v 5.558319 -1.000000 -0.728637
v 5.419863 0.198513 1.000000
v 5.339149 -1.000000 1.000000
v -3.380735 1.000000 -1.000000
v -3.380735 -1.000000 -1.000000
v -3.380735 1.000000 1.000000
v -3.380735 -1.000000 1.000000
v -1.559085 0.538487 3.092400
v -0.848643 -1.000000 4.853705
v -3.380735 0.538487 4.251625
v -3.380735 -1.000000 4.853705
v 9.551953 0.323572 -1.000000
v 10.330580 -1.000000 -1.460166
v 9.719507 0.125601 0.895067
v 10.330580 -1.000000 1.691206
v 11.765130 1.000000 -1.000000
v 11.765130 -1.000000 -1.336155
v 11.765130 0.497468 1.527038
v 11.765130 -1.000000 2.181167
v 13.791081 0.452705 -1.000000
v 13.791081 -1.000000 -1.000000
v 13.791081 -0.049827 1.000000
v 13.791081 -1.000000 1.000000
v 1.587276 0.000000 -1.211621
v -0.848643 0.000000 1.000000
v 1.587276 0.009462 1.000000
v -1.502312 -0.021030 -0.690137
v 5.336017 -0.298955 -0.728637
v 5.336017 -0.550221 1.000000
v -3.380735 0.000000 1.000000
v -3.380735 0.000000 -1.000000
v -0.848643 -0.230756 4.853705
v -3.380735 -0.230756 4.853705
v 9.672010 -0.152281 -1.460166
v 9.868945 -0.251266 1.389076
v 11.765130 0.000000 -1.336155
v 11.765130 -0.251266 2.181167
v 13.791081 0.000000 -1.000000
v 13.791081 -0.251266 1.000000
v 14.585643 1.000000 -1.000000
v 14.585643 -1.000000 -1.272209
v 14.585643 0.497468 1.000000
v 14.585643 -1.000000 1.000000
v 14.585643 0.000000 -1.311644
v 14.585643 -0.251266 1.000000
v 17.693550 0.692009 -1.000000
v 17.693550 -1.000000 -1.272209
v 16.472868 0.189477 1.655962
v 16.953789 -1.000000 2.119438
v 17.693550 -0.307991 -1.311644
v 17.051453 -0.261171 2.005217
v 4.961854 -1.000000 1.000000
v 5.045700 0.577609 1.000000
v 5.045700 0.619384 -0.817713
v 4.961854 -1.000000 -0.970129
v 5.003777 0.000000 -0.970129
v 5.003777 -0.120902 1.000000
v 6.358354 -1.000000 -1.094401
v 6.358354 -1.000000 1.345603
v 6.274570 0.311535 0.614421
v 6.251472 0.461758 -0.791253
v 6.347809 -0.076140 -1.094401
v 6.169459 -0.251266 1.194538
v 18.489138 -1.000000 -0.105780
v 19.122650 -1.000000 2.119438
v 18.437475 -0.307991 -0.145215
v 18.660120 0.102251 2.005217
v 17.177610 -1.000000 3.476019
v 17.305685 -0.559257 3.361798
v 18.975344 -1.000000 3.476019
v 18.660120 -0.363802 3.361798
v 2.817962 -1.000000 1.051630
v 2.817962 -0.381925 1.051630
v 4.693401 -1.000000 1.294191
v 4.462161 -0.409788 1.294191
v 2.972514 -1.000000 1.840025
v 2.972514 -0.686526 1.648196
v 4.240357 -1.000000 1.840025
v 4.017136 -0.684241 1.649431
vn 0.2086 0.9780 -0.0073
vn -0.0000 -0.0000 1.0000
vn -0.0052 -1.0000 0.0066
vn 0.0042 -1.0000 0.0047
vn -0.1330 0.0798 -0.9879
vn -0.0000 -1.0000 -0.0000
vn 0.6271 0.1236 -0.7691
vn 0.6762 0.7360 0.0312
vn -1.0000 -0.0000 -0.0000
vn -0.1670 0.9859 -0.0082
vn 0.1628 -0.0000 -0.9867
vn 0.1362 0.8485 0.5114
vn -0.0146 0.9737 0.2274
vn 0.7794 0.6176 0.1057
vn -0.3581 0.0773 0.9305
vn -0.0678 0.2619 0.9627
vn 0.0467 0.9937 0.1021
vn -0.0504 0.5939 -0.8030
vn 0.2802 0.9371 0.2081
vn -0.2583 0.9526 0.1607
vn -0.0650 0.4697 -0.8804
vn 0.1106 0.2241 -0.9683
vn 0.5037 -0.0000 0.8639
vn 0.3902 0.5221 0.7584
vn 0.1637 -0.0000 -0.9865
vn 0.0691 0.0246 -0.9973
vn -0.1001 -0.0378 -0.9943
vn -0.0242 0.7519 0.6588
vn -0.3099 0.6584 0.6859
vn 1.0000 -0.0000 -0.0000
vn 0.4735 0.0502 -0.8794
vn -0.1664 -0.0000 -0.9861
vn -0.3480 0.1034 0.9318
vn -0.5555 0.8065 0.2026
vn -0.2552 0.2028 -0.9454
vn -0.3448 -0.0185 -0.9385
vn 0.8825 0.3598 0.3027
vn -0.1078 0.9900 -0.0910
vn -0.4003 0.0963 0.9113
vn 0.0295 0.2974 -0.9543
vn 0.0889 0.9685 0.2324
vn -0.0023 -0.0466 -0.9989
vn 0.0709 -0.0015 -0.9975
vn 0.0142 0.9999 0.0059
vn 0.0679 0.2374 -0.9690
vn 0.0050 0.4039 0.9148
vn -0.3683 -0.0528 -0.9282
vn -0.3437 0.3416 -0.8747
vn -0.1306 0.9878 0.0845
vn -0.2901 0.0738 0.9542
vn 0.9447 0.2529 -0.2086
vn 0.8346 -0.0002 -0.5508
vn 0.9001 0.4186 0.1208
vn -0.0127 0.2054 0.9786
vn -0.1778 0.9427 0.2822
vn -0.9562 0.2203 0.1927
vn -0.0381 0.8588 0.5108
vn 0.5689 0.0733 0.8192
vn -0.0419 -0.0000 0.9991
vn -0.0299 0.4288 0.9029
vn -0.0010 0.5191 0.8547
vn -0.9727 0.0468 0.2274
vn 0.5693 0.4326 0.6991
vt 0.625000 0.500000
vt 0.875000 0.500000
vt 0.875000 0.750000
vt 0.625000 0.750000
vt 0.500000 0.750000
vt 0.625000 1.000000
vt 0.500000 1.000000
vt 0.125000 0.500000
vt 0.125000 0.750000
vt 0.375000 0.500000
vt 0.375000 0.750000
vt 0.500000 0.750000
vt 0.500000 0.250000
vt 0.625000 0.250000
vt 0.500000 0.500000
vt 0.375000 0.750000
vt 0.375000 0.500000
vt 0.625000 0.500000
vt 0.375000 0.500000
vt 0.625000 0.750000
vt 0.500000 0.000000
vt 0.625000 0.000000
vt 0.375000 0.250000
vt 0.375000 0.000000
vt 0.625000 0.750000
vt 0.500000 0.750000
vt 0.375000 1.000000
s 0
usemtl Material
f 1/1/1 5/2/1 7/3/1 3/4/1
f 35/5/2 3/4/2 7/6/2 34/7/2
f 6/8/3 8/9/3 16/9/3 14/8/3
f 6/8/4 2/10/4 4/11/4 8/9/4
f 66/12/2 61/11/2 12/11/2 38/12/2
f 36/13/5 5/14/5 1/1/5 33/15/5
f 68/16/6 67/17/6 22/10/6 24/11/6
f 65/15/7 63/18/7 9/1/7 37/15/7
f 61/11/6 64/19/6 10/10/6 12/11/6
f 63/18/8 62/20/8 11/4/8 9/1/8
f 39/21/9 15/22/9 13/14/9 40/13/9
f 7/3/10 5/2/10 13/2/10 15/3/10
f 36/13/11 6/23/11 14/23/11 40/13/11
f 16/9/6 8/9/6 18/9/6 20/9/6
f 41/7/12 17/6/12 19/6/12 42/7/12
f 7/3/13 15/3/13 19/3/13 17/3/13
f 34/7/14 7/6/14 17/6/14 41/7/14
f 39/21/9 16/24/9 20/24/9 42/21/9
f 44/12/15 24/11/15 28/11/15 46/12/15
f 72/12/16 68/16/16 24/11/16 44/12/16
f 70/1/17 69/25/17 23/4/17 21/1/17
f 71/15/18 70/1/18 21/1/18 43/15/18
f 25/1/19 27/4/19 31/4/19 29/1/19
f 21/1/20 23/4/20 27/4/20 25/1/20
f 43/15/21 21/1/21 25/1/21 45/15/21
f 24/11/6 22/10/6 26/10/6 28/11/6
f 31/4/2 48/26/2 54/26/2 51/4/2
f 45/15/22 25/1/22 29/1/22 47/15/22
f 28/11/6 26/10/6 30/10/6 32/11/6
f 46/12/23 28/11/23 32/11/23 48/26/23
f 27/4/24 46/12/24 48/26/24 31/4/24
f 26/10/25 45/15/25 47/15/25 30/10/25
f 32/11/6 30/10/6 50/10/6 52/11/6
f 22/10/26 43/15/26 45/15/26 26/10/26
f 67/17/27 71/15/27 43/15/27 22/10/27
f 69/25/28 72/12/28 44/12/28 23/4/28
f 23/4/29 44/12/29 46/12/29 27/4/29
f 15/22/9 39/21/9 42/21/9 19/22/9
f 8/27/30 34/7/30 41/7/30 18/27/30
f 18/27/2 41/7/2 42/7/2 20/27/2
f 5/14/11 36/13/11 40/13/11 13/14/11
f 16/24/9 39/21/9 40/13/9 14/23/9
f 64/19/31 65/15/31 37/15/31 10/10/31
f 6/23/32 36/13/32 33/15/32 2/10/32
f 62/20/2 66/12/2 38/12/2 11/4/2
f 4/11/2 35/5/2 34/7/2 8/27/2
f 52/11/6 50/10/6 56/10/6 58/11/6
f 51/4/33 54/26/33 60/26/33 57/4/33
f 48/26/2 32/11/2 52/11/2 54/26/2
f 29/1/34 31/4/34 51/4/34 49/1/34
f 47/15/35 29/1/35 49/1/35 53/15/35
f 30/10/36 47/15/36 53/15/36 50/10/36
f 59/15/37 55/1/37 57/4/37 60/26/37
f 59/15/38 60/26/38 76/26/38 75/15/38
f 54/26/39 52/11/39 58/11/39 60/26/39
f 53/15/40 49/1/40 55/1/40 59/15/40
f 49/1/41 51/4/41 57/4/41 55/1/41
f 50/10/42 53/15/42 59/15/42 56/10/42
f 3/4/2 35/5/2 66/12/2 62/20/2
f 2/10/43 33/15/43 65/15/43 64/19/43
f 1/1/44 3/4/44 62/20/44 63/18/44
f 4/11/6 2/10/6 64/19/6 61/11/6
f 33/15/45 1/1/45 63/18/45 65/15/45
f 4/11/6 61/11/6 83/11/6 81/11/6
f 11/4/46 38/12/46 72/12/46 69/25/46
f 10/10/47 37/15/47 71/15/47 67/17/47
f 37/15/48 9/1/48 70/1/48 71/15/48
f 9/1/49 11/4/49 69/25/49 70/1/49
f 38/12/50 12/11/50 68/16/50 72/12/50
f 12/11/6 10/10/6 67/17/6 68/16/6
f 73/10/51 75/15/51 76/26/51 74/11/51
f 56/10/52 59/15/52 75/15/52 73/10/52
f 58/11/6 56/10/6 73/10/6 74/11/6
f 74/11/53 76/26/53 80/26/53 79/11/53
f 78/26/54 77/11/54 79/11/54 80/26/54
f 76/26/55 60/26/55 78/26/55 80/26/55
f 60/26/56 58/11/56 77/11/56 78/26/56
f 58/11/6 74/11/6 79/11/6 77/11/6
f 84/12/57 82/5/57 86/5/57 88/12/57
f 61/11/58 66/12/58 84/12/58 83/11/58
f 35/5/59 4/11/59 81/11/59 82/5/59
f 66/12/60 35/5/60 82/5/60 84/12/60
f 86/5/61 85/11/61 87/11/61 88/12/61
f 82/5/62 81/11/62 85/11/62 86/5/62
f 83/11/63 84/12/63 88/12/63 87/11/63
f 81/11/6 83/11/6 87/11/6 85/11/6
